<?xml version="1.0" encoding="UTF-8" standalone="no"?>
<svg
   xmlns:dc="http://purl.org/dc/elements/1.1/"
   xmlns:cc="http://creativecommons.org/ns#"
   xmlns:rdf="http://www.w3.org/1999/02/22-rdf-syntax-ns#"
   xmlns:svg="http://www.w3.org/2000/svg"
   xmlns="http://www.w3.org/2000/svg"
   xmlns:sodipodi="http://sodipodi.sourceforge.net/DTD/sodipodi-0.dtd"
   xmlns:inkscape="http://www.inkscape.org/namespaces/inkscape"
   width="128px"
   height="128px"
   viewBox="0 0 128 128"
   version="1.1"
   id="SVGRoot"
   sodipodi:docname="pessum_icon.svg"
   inkscape:version="0.92.2 (unknown)">
  <sodipodi:namedview
     pagecolor="#ffffff"
     bordercolor="#666666"
     borderopacity="1"
     objecttolerance="10"
     gridtolerance="10"
     guidetolerance="10"
     inkscape:pageopacity="0"
     inkscape:pageshadow="2"
     inkscape:window-width="1855"
     inkscape:window-height="1056"
     id="namedview24"
     showgrid="false"
     inkscape:zoom="3.6875"
     inkscape:cx="91.069728"
     inkscape:cy="14.790274"
     inkscape:window-x="65"
     inkscape:window-y="24"
     inkscape:window-maximized="1"
     inkscape:current-layer="layer1" />
  <defs
     id="defs4504" />
  <metadata
     id="metadata4507">
    <rdf:RDF>
      <cc:Work
         rdf:about="">
        <dc:format>image/svg+xml</dc:format>
        <dc:type
           rdf:resource="http://purl.org/dc/dcmitype/StillImage" />
        <dc:title />
      </cc:Work>
    </rdf:RDF>
  </metadata>
  <g
     id="layer1">
    <path
       style="fill:#e1bee7;fill-opacity:1;stroke:none;stroke-width:0.90602702;stroke-linecap:butt;stroke-linejoin:miter;stroke-miterlimit:4;stroke-dasharray:none;stroke-opacity:1"
       d="M 10.352131,32.212436 V 95.632797 L 65.27696,127.34414 V 63.923787 Z M 26.046277,50.331869 49.585155,63.923787 V 91.102938 L 33.891009,82.043222 v 18.119428 l -7.844732,-4.529853 z m 7.844732,13.591918 v 9.059717 l 7.847074,4.529859 v -9.059717 z"
       id="path5065"
       inkscape:connector-curvature="0" />
    <path
       style="opacity:1;fill:#d8abe0;fill-opacity:1;stroke:none;stroke-width:0.90602702;stroke-linecap:butt;stroke-linejoin:miter;stroke-miterlimit:4;stroke-dasharray:none;stroke-opacity:1"
       d="M 120.20179,32.212436 65.27696,63.923787 v 63.420353 l 54.92483,-31.711343 z m -15.69181,18.119433 v 9.059719 l -15.694136,9.062058 v 9.059717 l 7.847059,-4.529859 v 9.059718 l -7.847059,4.529858 v 9.059717 L 104.50998,86.57308 v 9.059717 L 80.971105,109.22471 V 63.923787 Z"
       id="path5074"
       inkscape:connector-curvature="0" />
    <path
       style="opacity:1;fill:#e9d0ed;fill-opacity:1;stroke:none;stroke-width:0.90602702;stroke-linecap:butt;stroke-linejoin:miter;stroke-miterlimit:4;stroke-dasharray:none;stroke-opacity:1"
       d="M 65.277284,63.922626 120.20226,32.21168 65.277284,0.50073457 10.352316,32.21168 Z"
       id="path5079"
       inkscape:connector-curvature="0" />
    <path
       style="opacity:1;fill:#c580d1;fill-opacity:1;stroke:none;stroke-width:1.19859827px;stroke-linecap:butt;stroke-linejoin:miter;stroke-opacity:1"
       d="m 96.662903,54.861728 -15.691798,9.062059 7.844739,4.529859 15.694136,-9.062058 z m -7.847059,22.651635 -7.844739,4.529859 7.844739,4.529858 7.847059,-4.529858 z m 7.847059,13.589575 -15.691798,9.059712 v 9.06206 L 104.50998,95.632797 Z"
       id="path5217"
       inkscape:connector-curvature="0" />
    <path
       id="path5215"
       d="m 41.738083,59.391588 -7.847074,4.532199 7.847074,4.529859 7.847072,-4.529859 z m 0,18.121775 -7.847074,4.529859 15.694146,9.059716 v -9.059716 z m -7.847074,13.589575 -7.844732,4.529859 7.844732,4.529853 z"
       style="fill:#ce93d8;fill-opacity:1;stroke:none;stroke-width:1.19859827px;stroke-linecap:butt;stroke-linejoin:miter;stroke-opacity:1"
       inkscape:connector-curvature="0" />
    <path
       id="path5242"
       d="m 26.046277,50.331869 v 45.300928 l 7.844732,-4.529859 v -36.24121 z m 23.538878,13.591918 -7.847072,4.529859 v 9.059717 l 7.847072,-4.529859 z"
       style="fill:#ba68c8;fill-opacity:1;stroke:none;stroke-width:1.19859827px;stroke-linecap:butt;stroke-linejoin:miter;stroke-opacity:1"
       inkscape:connector-curvature="0" />
    <path
       style="opacity:1;fill:#9b3eab;fill-opacity:1;stroke:none;stroke-width:1.19859827px;stroke-linecap:butt;stroke-linejoin:miter;stroke-opacity:1"
       d="m 80.971105,72.983504 v 9.059718 l 7.844739,-4.529859 z m 0,18.119434 v 9.059712 l 7.844739,-4.529853 z"
       id="path5238"
       inkscape:connector-curvature="0" />
    <path
       id="path5234"
       d="m 104.50998,50.331869 -7.847077,4.529859 7.847077,4.52986 z M 80.971105,63.923787 v 9.059717 l 7.844739,4.529859 v -9.059717 z m 7.844739,13.589576 7.847059,4.529859 v -9.059718 z m -7.844739,4.529859 v 9.059716 l 7.844739,4.529859 V 86.57308 Z m 23.538875,4.529858 -7.847077,4.529858 7.847077,4.529859 z"
       style="opacity:1;fill:#b155c1;fill-opacity:1;stroke:none;stroke-width:1.19859827px;stroke-linecap:butt;stroke-linejoin:miter;stroke-opacity:1"
       inkscape:connector-curvature="0" />
    <path
       id="path5232"
       d="m 33.891009,54.861728 v 9.062059 l 7.847074,-4.532199 z m 0,18.121776 v 9.059718 l 7.847074,-4.529859 z m 7.847074,4.529859 7.847072,4.529859 v -9.059718 z"
       style="fill:#ab47bc;fill-opacity:1;stroke:none;stroke-width:1.19859827px;stroke-linecap:butt;stroke-linejoin:miter;stroke-opacity:1"
       inkscape:connector-curvature="0" />
  </g>
</svg>
