<?xml version="1.0" encoding="UTF-8" standalone="no"?>
<!-- Created with Inkscape (http://www.inkscape.org/) -->

<svg
   xmlns:dc="http://purl.org/dc/elements/1.1/"
   xmlns:cc="http://creativecommons.org/ns#"
   xmlns:rdf="http://www.w3.org/1999/02/22-rdf-syntax-ns#"
   xmlns:svg="http://www.w3.org/2000/svg"
   xmlns="http://www.w3.org/2000/svg"
   xmlns:sodipodi="http://sodipodi.sourceforge.net/DTD/sodipodi-0.dtd"
   xmlns:inkscape="http://www.inkscape.org/namespaces/inkscape"
   id="SVGRoot"
   version="1.1"
   viewBox="0 0 128 128"
   height="128px"
   width="128px"
   inkscape:version="0.92.2 (unknown)"
   sodipodi:docname="pessum_logo.svg">
  <sodipodi:namedview
     showguides="true"
     inkscape:grid-bbox="true"
     inkscape:window-maximized="1"
     inkscape:window-y="24"
     inkscape:window-x="65"
     inkscape:window-height="1056"
     inkscape:window-width="1855"
     showgrid="true"
     inkscape:current-layer="layer1"
     inkscape:document-units="px"
     inkscape:cy="71.813682"
     inkscape:cx="85.472769"
     inkscape:zoom="5.6568542"
     inkscape:pageshadow="2"
     inkscape:pageopacity="0.0"
     borderopacity="1.0"
     bordercolor="#666666"
     pagecolor="#ffffff"
     id="base">
    <inkscape:grid
       type="axonomgrid"
       id="grid5063"
       units="mm"
       empspacing="7"
       spacingy="7.5590551"
       originy="-15.496063"
       originx="18.519685" />
  </sodipodi:namedview>
  <defs
     id="defs4504" />
  <metadata
     id="metadata4507">
    <rdf:RDF>
      <cc:Work
         rdf:about="">
        <dc:format>image/svg+xml</dc:format>
        <dc:type
           rdf:resource="http://purl.org/dc/dcmitype/StillImage" />
        <dc:title></dc:title>
      </cc:Work>
    </rdf:RDF>
  </metadata>
  <g
     id="layer1"
     inkscape:groupmode="layer"
     inkscape:label="Layer 1">
    <path
       style="fill:#e1bee7;stroke:none;stroke-width:0.75590551;stroke-linecap:butt;stroke-linejoin:miter;stroke-opacity:1;fill-opacity:1;stroke-miterlimit:4;stroke-dasharray:none"
       d="M 18.519531 37.669922 L 18.519531 90.582031 L 64.34375 117.03906 L 64.34375 64.126953 L 18.519531 37.669922 z M 31.613281 52.787109 L 51.251953 64.126953 L 51.251953 86.802734 L 38.158203 79.244141 L 38.158203 94.361328 L 31.613281 90.582031 L 31.613281 52.787109 z M 38.158203 64.126953 L 38.158203 71.685547 L 44.705078 75.464844 L 44.705078 67.90625 L 38.158203 64.126953 z "
       id="path5065" />
    <path
       style="fill:#d9ace0;fill-opacity:1;stroke:none;stroke-width:0.75590551;stroke-linecap:butt;stroke-linejoin:miter;stroke-opacity:1;stroke-miterlimit:4;stroke-dasharray:none"
       d="M 110.16797,37.669922 64.34375,64.126953 V 117.03906 L 110.16797,90.582031 Z M 97.076172,52.787109 v 7.558594 l -13.09375,7.560547 v 7.558594 l 6.546875,-3.779297 v 7.558594 l -6.546875,3.779297 v 7.558593 l 13.09375,-7.558593 v 7.558593 L 77.4375,101.92188 V 64.126953 Z"
       id="path5074"
       inkscape:connector-curvature="0" />
    <path
       style="fill:#e8ceed;stroke:none;stroke-width:0.75590551;stroke-linecap:butt;stroke-linejoin:miter;stroke-opacity:1;fill-opacity:1;stroke-miterlimit:4;stroke-dasharray:none"
       d="M 64.344021,64.125984 110.16836,37.669292 64.344021,11.212599 18.519685,37.669292 Z"
       id="path5079"
       inkscape:connector-curvature="0" />
    <path
       style="fill:#c888d2;stroke:none;stroke-width:1px;stroke-linecap:butt;stroke-linejoin:miter;stroke-opacity:1;fill-opacity:1"
       d="M 90.529297 56.566406 L 77.4375 64.126953 L 83.982422 67.90625 L 97.076172 60.345703 L 90.529297 56.566406 z M 83.982422 75.464844 L 77.4375 79.244141 L 83.982422 83.023438 L 90.529297 79.244141 L 83.982422 75.464844 z M 90.529297 86.802734 L 77.4375 94.361328 L 77.4375 101.92188 L 97.076172 90.582031 L 90.529297 86.802734 z "
       id="path5217" />
    <path
       style="fill:#cf97d8;stroke:none;stroke-width:1px;stroke-linecap:butt;stroke-linejoin:miter;stroke-opacity:1;fill-opacity:1"
       d="m 44.705078,60.345703 -6.546875,3.78125 6.546875,3.779297 6.546875,-3.779297 z"
       id="path5215" />
    <path
       style="fill:#cf97d8;stroke:none;stroke-width:1px;stroke-linecap:butt;stroke-linejoin:miter;stroke-opacity:1;fill-opacity:1"
       d="m 44.705078,75.464844 -6.546875,3.779297 13.09375,7.558593 v -7.558593 z"
       id="path5213" />
    <path
       style="fill:#cf97d8;stroke:none;stroke-width:1px;stroke-linecap:butt;stroke-linejoin:miter;stroke-opacity:1;fill-opacity:1"
       d="m 38.158203,86.802734 -6.544922,3.779297 6.544922,3.779297 z"
       id="path5209" />
    <path
       style="fill:#b762c5;stroke:none;stroke-width:1px;stroke-linecap:butt;stroke-linejoin:miter;stroke-opacity:1;fill-opacity:1"
       d="m 31.613281,52.787109 v 37.794922 l 6.544922,-3.779297 V 56.566406 Z"
       id="path5242" />
    <path
       style="fill:#b762c5;stroke:none;stroke-width:1px;stroke-linecap:butt;stroke-linejoin:miter;stroke-opacity:1;fill-opacity:1"
       d="m 51.251953,64.126953 -6.546875,3.779297 v 7.558594 l 6.546875,-3.779297 z"
       id="path5240" />
    <path
       style="fill:#933ba2;stroke:none;stroke-width:1px;stroke-linecap:butt;stroke-linejoin:miter;stroke-opacity:1;fill-opacity:1"
       d="M 77.4375 71.685547 L 77.4375 79.244141 L 83.982422 75.464844 L 77.4375 71.685547 z M 77.4375 86.802734 L 77.4375 94.361328 L 83.982422 90.582031 L 77.4375 86.802734 z "
       id="path5238" />
    <path
       style="fill:#b761c5;stroke:none;stroke-width:1px;stroke-linecap:butt;stroke-linejoin:miter;stroke-opacity:1;fill-opacity:1"
       d="m 97.076172,52.787109 -6.546875,3.779297 6.546875,3.779297 z"
       id="path5234" />
    <path
       style="fill:#c886d3;stroke:none;stroke-width:1px;stroke-linecap:butt;stroke-linejoin:miter;stroke-opacity:1;fill-opacity:1"
       d="m 38.158203,56.566406 v 7.560547 l 6.546875,-3.78125 z"
       id="path5232" />
    <path
       style="fill:#b761c5;stroke:none;stroke-width:1px;stroke-linecap:butt;stroke-linejoin:miter;stroke-opacity:1;fill-opacity:1"
       d="m 77.4375,64.126953 v 7.558594 l 6.544922,3.779297 V 67.90625 Z"
       id="path5230" />
    <path
       style="fill:#b761c5;stroke:none;stroke-width:1px;stroke-linecap:butt;stroke-linejoin:miter;stroke-opacity:1;fill-opacity:1"
       d="m 83.982422,75.464844 6.546875,3.779297 v -7.558594 z"
       id="path5228" />
    <path
       style="fill:#c886d3;stroke:none;stroke-width:1px;stroke-linecap:butt;stroke-linejoin:miter;stroke-opacity:1;fill-opacity:1"
       d="m 38.158203,71.685547 v 7.558594 l 6.546875,-3.779297 z"
       id="path5226" />
    <path
       style="fill:#c886d3;stroke:none;stroke-width:1px;stroke-linecap:butt;stroke-linejoin:miter;stroke-opacity:1;fill-opacity:1"
       d="m 44.705078,75.464844 6.546875,3.779297 v -7.558594 z"
       id="path5224" />
    <path
       style="fill:#b761c5;stroke:none;stroke-width:1px;stroke-linecap:butt;stroke-linejoin:miter;stroke-opacity:1;fill-opacity:1"
       d="m 77.4375,79.244141 v 7.558593 l 6.544922,3.779297 v -7.558593 z"
       id="path5222" />
    <path
       style="fill:#b761c5;stroke:none;stroke-width:1px;stroke-linecap:butt;stroke-linejoin:miter;stroke-opacity:1;fill-opacity:1"
       d="m 97.076172,83.023438 -6.546875,3.779296 6.546875,3.779297 z"
       id="path5158" />
  </g>
</svg>
